<mxfile host="app.diagrams.net" modified="2022-06-04T09:53:56.777Z" agent="5.0 (Windows NT 10.0; Win64; x64) AppleWebKit/537.36 (KHTML, like Gecko) Chrome/102.0.0.0 Safari/537.36" etag="-aziko6ir-YcFviPyJgl" version="19.0.0" type="github">
  <diagram id="PzsserQt60g6IeU5ntgX" name="Page-1">
    <mxGraphModel dx="1422" dy="786" grid="1" gridSize="10" guides="1" tooltips="1" connect="1" arrows="1" fold="1" page="1" pageScale="1" pageWidth="850" pageHeight="1100" math="0" shadow="0">
      <root>
        <mxCell id="0" />
        <mxCell id="1" parent="0" />
        <mxCell id="QdPYGBV6IFQvgXhpAuGG-7" style="edgeStyle=orthogonalEdgeStyle;rounded=0;orthogonalLoop=1;jettySize=auto;html=1;exitX=0.5;exitY=0;exitDx=0;exitDy=0;entryX=0;entryY=0.5;entryDx=0;entryDy=0;" edge="1" parent="1" source="QdPYGBV6IFQvgXhpAuGG-1" target="QdPYGBV6IFQvgXhpAuGG-4">
          <mxGeometry relative="1" as="geometry" />
        </mxCell>
        <mxCell id="QdPYGBV6IFQvgXhpAuGG-14" style="edgeStyle=orthogonalEdgeStyle;rounded=0;orthogonalLoop=1;jettySize=auto;html=1;exitX=0.5;exitY=1;exitDx=0;exitDy=0;entryX=0;entryY=0.5;entryDx=0;entryDy=0;" edge="1" parent="1" source="QdPYGBV6IFQvgXhpAuGG-1" target="QdPYGBV6IFQvgXhpAuGG-2">
          <mxGeometry relative="1" as="geometry" />
        </mxCell>
        <mxCell id="QdPYGBV6IFQvgXhpAuGG-1" value="User" style="rounded=1;whiteSpace=wrap;html=1;" vertex="1" parent="1">
          <mxGeometry x="120" y="270" width="120" height="60" as="geometry" />
        </mxCell>
        <mxCell id="QdPYGBV6IFQvgXhpAuGG-12" style="edgeStyle=orthogonalEdgeStyle;rounded=0;orthogonalLoop=1;jettySize=auto;html=1;exitX=0.75;exitY=0;exitDx=0;exitDy=0;entryX=0.75;entryY=1;entryDx=0;entryDy=0;" edge="1" parent="1" source="QdPYGBV6IFQvgXhpAuGG-2" target="QdPYGBV6IFQvgXhpAuGG-4">
          <mxGeometry relative="1" as="geometry" />
        </mxCell>
        <mxCell id="QdPYGBV6IFQvgXhpAuGG-15" style="edgeStyle=orthogonalEdgeStyle;rounded=0;orthogonalLoop=1;jettySize=auto;html=1;exitX=1;exitY=0.5;exitDx=0;exitDy=0;entryX=0;entryY=0.5;entryDx=0;entryDy=0;" edge="1" parent="1" source="QdPYGBV6IFQvgXhpAuGG-2" target="QdPYGBV6IFQvgXhpAuGG-5">
          <mxGeometry relative="1" as="geometry" />
        </mxCell>
        <mxCell id="QdPYGBV6IFQvgXhpAuGG-2" value="Fitapotheke App" style="rounded=1;whiteSpace=wrap;html=1;" vertex="1" parent="1">
          <mxGeometry x="280" y="330" width="120" height="60" as="geometry" />
        </mxCell>
        <mxCell id="QdPYGBV6IFQvgXhpAuGG-3" value="API" style="rounded=1;whiteSpace=wrap;html=1;" vertex="1" parent="1">
          <mxGeometry x="440" y="210" width="120" height="60" as="geometry" />
        </mxCell>
        <mxCell id="QdPYGBV6IFQvgXhpAuGG-10" style="edgeStyle=orthogonalEdgeStyle;rounded=0;orthogonalLoop=1;jettySize=auto;html=1;exitX=1;exitY=0.5;exitDx=0;exitDy=0;entryX=0;entryY=0.5;entryDx=0;entryDy=0;" edge="1" parent="1" source="QdPYGBV6IFQvgXhpAuGG-4" target="QdPYGBV6IFQvgXhpAuGG-3">
          <mxGeometry relative="1" as="geometry" />
        </mxCell>
        <mxCell id="QdPYGBV6IFQvgXhpAuGG-11" style="edgeStyle=orthogonalEdgeStyle;rounded=0;orthogonalLoop=1;jettySize=auto;html=1;exitX=0.25;exitY=1;exitDx=0;exitDy=0;entryX=0.25;entryY=0;entryDx=0;entryDy=0;" edge="1" parent="1" source="QdPYGBV6IFQvgXhpAuGG-4" target="QdPYGBV6IFQvgXhpAuGG-2">
          <mxGeometry relative="1" as="geometry" />
        </mxCell>
        <mxCell id="QdPYGBV6IFQvgXhpAuGG-4" value="Smart Watch" style="rounded=1;whiteSpace=wrap;html=1;" vertex="1" parent="1">
          <mxGeometry x="280" y="210" width="120" height="60" as="geometry" />
        </mxCell>
        <mxCell id="QdPYGBV6IFQvgXhpAuGG-5" value="Backend" style="rounded=1;whiteSpace=wrap;html=1;" vertex="1" parent="1">
          <mxGeometry x="440" y="330" width="120" height="60" as="geometry" />
        </mxCell>
      </root>
    </mxGraphModel>
  </diagram>
</mxfile>
